<?xml version="1.0" encoding="UTF-8" standalone="no"?>
<!-- Created with Inkscape (http://www.inkscape.org/) -->

<svg
   xmlns:dc="http://purl.org/dc/elements/1.1/"
   xmlns:cc="http://creativecommons.org/ns#"
   xmlns:rdf="http://www.w3.org/1999/02/22-rdf-syntax-ns#"
   xmlns:svg="http://www.w3.org/2000/svg"
   xmlns="http://www.w3.org/2000/svg"
   xmlns:inkscape="http://www.inkscape.org/namespaces/inkscape"
   version="1.1"
   width="844.40002"
   height="307.5"
   id="svg2"
   xml:space="preserve"><metadata
     id="metadata8"><rdf:RDF><cc:Work
         rdf:about=""><dc:format>image/svg+xml</dc:format><dc:type
           rdf:resource="http://purl.org/dc/dcmitype/StillImage" /></cc:Work></rdf:RDF></metadata><defs
     id="defs6" /><g
     transform="matrix(1.25,0,0,-1.25,0,307.5)"
     id="g10"><g
       transform="scale(0.1,0.1)"
       id="g12"><path
         d="m 3772.52,1715.48 -235.85,0 0,-545.52 c 0,-140.43 -57.61,-252.062 -226.85,-252.062 -167.44,-1.796 -216.05,113.432 -216.05,259.262 l 0,538.32 -235.85,0 0,-597.73 c 0,-172.84 61.21,-419.488 385.28,-421.289 178.24,-1.801 266.46,84.609 307.87,162.027 l 0,-131.429 221.45,0 0,988.421"
         inkscape:connector-curvature="0"
         id="path14"
         style="fill:#1b2530;fill-opacity:1;fill-rule:nonzero;stroke:none" /><path
         d="m 3866.3,727.059 235.85,0 0,545.521 c 0,138.63 57.61,250.26 225.05,252.06 165.63,0 214.24,-113.43 214.24,-261.06 l 0,-536.521 235.85,0 0,595.931 c 0,174.64 -61.21,421.29 -383.48,423.1 -176.44,1.79 -264.66,-84.63 -307.87,-162.04 1.8,46.81 1.8,88.22 1.8,131.43 l -221.44,0 0,-988.421"
         inkscape:connector-curvature="0"
         id="path16"
         style="fill:#1b2530;fill-opacity:1;fill-rule:nonzero;stroke:none" /><path
         d="m 4867.47,727.059 235.85,0 0,988.421 -235.85,0 0,-988.421 z m 0,1121.651 235.85,0 0,210.64 -235.85,0 0,-210.64"
         inkscape:connector-curvature="0"
         id="path18"
         style="fill:#1b2530;fill-opacity:1;fill-rule:nonzero;stroke:none" /><path
         d="m 5350.27,727.059 235.86,0 0,806.581 169.23,0 -70,181.84 -99.23,0 0,343.87 -235.86,0 0,-343.87 -163.83,0 0,-181.84 163.83,0 0,-806.581"
         inkscape:connector-curvature="0"
         id="path20"
         style="fill:#1b2530;fill-opacity:1;fill-rule:nonzero;stroke:none" /><path
         d="m 5982.86,381.391 252.06,0 520.31,1334.089 -252.05,0 -237.65,-657.15 -241.26,657.15 -252.05,0 372.68,-950.609 -162.04,-383.48"
         inkscape:connector-curvature="0"
         id="path22"
         style="fill:#1b2530;fill-opacity:1;fill-rule:nonzero;stroke:none" /><path
         d="m 1564.81,1229.94 430.5,743.38 208.03,-743.38 -208.03,-743.21 -430.5,743.21 z m -209.83,-120.72 430.57,-743.271 -749.87,192.11 -541.735,551.161 861.035,0 z m 430.47,984.92 -430.47,-743.38 -861.035,0 541.735,551.19 749.77,192.19 z m 614.58,-611.22 -262.64,977.1 -980.3,-261.86 -145.11,-255.13 -294.464,2.11 L 0,1229.87 l 717.516,-715.1 0.035,0 294.329,2.179 L 1157.2,261.82 2137.39,0 l 262.64,976.922 -149.15,253.018 149.15,252.98"
         inkscape:connector-curvature="0"
         id="path24"
         style="fill:#1b2530;fill-opacity:1;fill-rule:nonzero;stroke:none" /></g></g></svg>